<?xml version="1.0" encoding="utf-8"?>
<!-- Generator: Adobe Illustrator 16.0.0, SVG Export Plug-In . SVG Version: 6.00 Build 0)  -->
<!DOCTYPE svg PUBLIC "-//W3C//DTD SVG 1.1//EN" "http://www.w3.org/Graphics/SVG/1.1/DTD/svg11.dtd">
<svg version="1.1" id="图层_1" xmlns="http://www.w3.org/2000/svg" xmlns:xlink="http://www.w3.org/1999/xlink" x="0px" y="0px"
	 width="440.771px" height="89.443px" viewBox="0 0 440.771 89.443" enable-background="new 0 0 440.771 89.443"
	 xml:space="preserve">
<path fill="#FFFFFF" d="M158.317,22.523v6.705h-21.598v15.494h-7.652V25.115c0.035-5.634,0.542-9.334,1.521-11.099
	c1.229-2.48,3.01-4.245,5.344-5.298c2.333-1.051,5.617-1.576,9.85-1.576h12.536v6.704h-11.56c-3.581,0.075-5.879,0.376-6.891,0.901
	c-2.027,0.864-3.075,2.78-3.147,5.747v2.028H158.317z"/>
<path fill="#FFFFFF" d="M191.147,7.142v6.705h-10.04c-2.604,0-4.504,0.188-5.696,0.563c-1.195,0.376-2.19,1.108-2.985,2.197
	c-0.544,0.753-0.914,1.503-1.112,2.254c-0.199,0.752-0.372,2.028-0.516,3.831h20.35v6.705h-20.35
	c0.288,3.23,1.211,5.474,2.767,6.732c1.557,1.26,4.197,1.888,7.923,1.888h9.66v6.705h-10.04c-2.713,0-5.101-0.17-7.163-0.508
	c-3.256-0.563-5.843-2.047-7.76-4.45c-2.75-3.455-4.125-8.133-4.125-14.029c0-6.536,1.937-11.625,5.809-15.27
	c1.338-1.239,2.758-2.103,4.259-2.592c1.501-0.486,3.518-0.731,6.051-0.731H191.147z"/>
<path fill="#FFFFFF" d="M204.931,30.468v14.255h-7.705V7.142h17.69c5.064,0,8.592,0.676,10.582,2.027
	c1.375,0.902,2.433,2.095,3.175,3.578c0.741,1.484,1.111,3.109,1.111,4.874c0,3.569-0.866,6.329-2.604,8.282
	c-1.086,1.164-2.515,2.047-4.287,2.647c1.41,0.526,2.479,1.08,3.201,1.662c0.724,0.583,1.375,1.438,1.954,2.564
	c0.435,0.901,0.751,1.765,0.95,2.591c0.197,0.827,0.353,2.048,0.461,3.663c0.217,2.704,0.507,4.601,0.868,5.69H221.7
	c-0.255-0.863-0.524-2.648-0.813-5.354c-0.182-2.177-0.553-3.849-1.112-5.014c-0.562-1.163-1.401-2.085-2.522-2.762
	c-1.411-0.788-3.455-1.163-6.132-1.126H204.931z M204.931,23.763h10.799c1.811,0,3.095-0.282,3.854-0.846
	c1.158-0.826,1.736-2.272,1.736-4.339c0-2.29-0.867-3.755-2.604-4.394c-0.616-0.227-1.61-0.339-2.986-0.339h-10.799L204.931,23.763
	L204.931,23.763z"/>
<path fill="#FFFFFF" d="M243.676,30.468v14.255h-7.705V7.142h17.69c5.064,0,8.592,0.676,10.582,2.027
	c1.375,0.902,2.433,2.095,3.174,3.578c0.742,1.484,1.112,3.109,1.112,4.874c0,3.569-0.867,6.329-2.604,8.282
	c-1.086,1.164-2.515,2.047-4.287,2.647c1.41,0.526,2.479,1.08,3.201,1.662c0.724,0.583,1.375,1.438,1.954,2.564
	c0.435,0.901,0.751,1.765,0.95,2.591c0.197,0.827,0.353,2.048,0.461,3.663c0.217,2.704,0.507,4.601,0.868,5.69h-8.63
	c-0.254-0.863-0.523-2.648-0.813-5.354c-0.182-2.177-0.553-3.849-1.112-5.014c-0.562-1.163-1.401-2.085-2.522-2.762
	c-1.411-0.788-3.455-1.163-6.133-1.126H243.676z M243.676,23.763h10.799c1.811,0,3.094-0.282,3.854-0.846
	c1.157-0.826,1.735-2.272,1.735-4.339c0-2.29-0.867-3.755-2.604-4.394c-0.615-0.227-1.609-0.339-2.985-0.339h-10.799L243.676,23.763
	L243.676,23.763z"/>
<path fill="#FFFFFF" d="M290.618,6.917c3.615,0,6.801,0.64,9.55,1.915c3.221,1.541,5.48,4.113,6.783,7.719
	c1.013,2.818,1.521,6.123,1.521,9.916c0,3.831-0.615,7.156-1.845,9.974c-1.558,3.344-3.944,5.689-7.163,7.043
	c-2.389,0.977-5.138,1.465-8.249,1.465c-4.089,0-7.634-0.789-10.637-2.367c-2.532-1.313-4.471-3.38-5.807-6.197
	c-1.34-2.817-2.009-6.234-2.009-10.255c0-7.174,1.718-12.281,5.155-15.323C280.813,8.25,285.045,6.954,290.618,6.917
	 M290.671,13.227c-3.546,0-6.077,1.202-7.599,3.604c-1.229,1.879-1.845,4.902-1.845,9.072c0,4.394,0.76,7.625,2.279,9.69
	c1.519,2.028,3.926,3.043,7.218,3.043c3.184,0,5.525-1.033,7.028-3.099c1.499-2.065,2.251-5.259,2.251-9.579
	c0-3.943-0.616-6.947-1.846-9.014C296.75,14.504,294.252,13.265,290.671,13.227"/>
<path fill="#FFFFFF" d="M313.735,44.722v-6.705h16.552c2.642,0,4.396-0.263,5.265-0.789c1.267-0.788,1.898-1.973,1.898-3.549
	c0-1.841-0.742-3.175-2.226-4c-0.832-0.488-2.17-0.732-4.017-0.732h-6.729c-4.089,0-7.037-0.771-8.848-2.31
	c-1.12-0.978-1.997-2.198-2.631-3.663s-0.949-3.043-0.949-4.732c0-2.629,0.742-5.034,2.226-7.212
	c1.446-2.104,3.763-3.343,6.946-3.719c1.085-0.113,2.693-0.169,4.829-0.169h17.962v6.705h-16.226
	c-2.425,0.037-4.034,0.149-4.829,0.338c-1.629,0.413-2.442,1.689-2.442,3.831c0,1.803,0.687,3.005,2.062,3.605
	c0.904,0.451,2.426,0.676,4.561,0.676h5.807c2.965,0,5.172,0.264,6.62,0.789c2.568,0.901,4.342,2.479,5.318,4.732
	c0.759,1.803,1.14,3.738,1.14,5.804c0,2.291-0.508,4.338-1.52,6.142c-1.411,2.555-3.528,4.095-6.351,4.619
	c-1.375,0.227-3.455,0.339-6.239,0.339H313.735z"/>
<path fill="#FFFFFF" d="M378.744,7.142v6.705h-10.039c-2.604,0-4.504,0.188-5.697,0.563c-1.193,0.376-2.189,1.108-2.984,2.197
	c-0.543,0.753-0.914,1.503-1.112,2.254c-0.198,0.752-0.372,2.028-0.517,3.831h20.351v6.705h-20.351
	c0.289,3.23,1.213,5.474,2.769,6.732c1.557,1.26,4.196,1.888,7.924,1.888h9.658v6.705h-10.039c-2.714,0-5.103-0.17-7.162-0.508
	c-3.257-0.563-5.844-2.047-7.762-4.45c-2.749-3.455-4.124-8.133-4.124-14.029c0-6.536,1.936-11.625,5.808-15.27
	c1.339-1.239,2.759-2.103,4.26-2.592c1.501-0.486,3.519-0.731,6.052-0.731H378.744z"/>
<polygon fill="#FFFFFF" points="395.895,7.142 404.903,36.496 414.399,7.142 425.632,7.142 425.632,44.722 418.307,44.722 
	418.307,16.551 408.864,44.722 400.941,44.722 391.987,16.551 391.987,44.722 384.661,44.722 384.661,7.142 "/>
<rect x="433.066" y="7.142" fill="#FFFFFF" width="7.706" height="37.58"/>
<path fill="#FFFFFF" d="M134.398,84.821h-4.63v-3.012v-2.473v-2.974v-2.472v-0.457v-2.518h9.394h3.857h0.771v9.667
	c0,0.591-0.095,1.144-0.283,1.657c-0.188,0.513-0.449,0.962-0.782,1.348c-0.333,0.385-0.722,0.688-1.166,0.905
	s-0.922,0.327-1.433,0.327H134.398z M135.264,56.974h18.22h3.198h1.432v8.355c0,0.59-0.1,1.144-0.299,1.656
	s-0.466,0.962-0.799,1.347s-0.721,0.688-1.164,0.906c-0.442,0.217-0.909,0.327-1.396,0.327h-19.158h-3.423h-1.208V56.974h1.2
	H135.264z M134.398,76.363h4.764v-2.472h-4.764V76.363z M134.398,81.847h3.704c0.286,0,0.535-0.117,0.744-0.354
	c0.21-0.235,0.315-0.521,0.315-0.863v-1.294h-4.764V81.847z M135.297,61.764h18.187v-1.815h-18.187V61.764z M152.454,66.591
	c0.288,0,0.53-0.117,0.73-0.354c0.199-0.237,0.299-0.527,0.299-0.869v-0.63h-18.187v1.853H152.454z M159.013,80.584
	c0,0.591-0.095,1.144-0.283,1.657c-0.188,0.513-0.449,0.962-0.782,1.348c-0.332,0.385-0.723,0.688-1.165,0.905
	c-0.445,0.218-0.923,0.327-1.434,0.327h-0.966h-4.763h-4.631v-3.004v-2.465v-2.967v-2.465v-0.462v-2.542h9.394h3.864h0.766V80.584z
	 M149.62,76.363h4.764v-2.472h-4.764V76.363z M153.351,81.847c0.288,0,0.532-0.117,0.732-0.354c0.201-0.235,0.3-0.521,0.3-0.863
	v-1.294h-4.763v2.511H153.351z"/>
<path fill="#FFFFFF" d="M166.708,58.751h6.596v3.128h-4.63h-1.966h-4.764l1.966-4.711h3.397L166.708,58.751z M164.376,70.724v-3.862
	h-2.433v-3.244h11.159v3.244h-4.396v3.862h4.396v3.243h-4.396v6.605c0,0.335,0.104,0.618,0.316,0.849
	c0.211,0.233,0.46,0.349,0.749,0.349h3.364l-1.832,2.974h-3.797c-0.444,0-0.855-0.097-1.232-0.289
	c-0.378-0.192-0.706-0.45-0.982-0.771c-0.278-0.323-0.5-0.701-0.667-1.14c-0.166-0.438-0.249-0.914-0.249-1.429v-7.146h-2.433
	v-3.243L164.376,70.724L164.376,70.724z M191.423,73.813h-7.229l-0.898,1.97h4.397l3.63,9.153h-4.862l-3.298-8.807l-4.03,8.807
	h-5.097l5.196-11.123h-5.13V69.99h6.962v-5.485h-6.828l1.199-6.797h4.063l-0.5,2.974h2.065V56.82h4.53v3.862h5.196v3.823h-5.196
	v5.485h5.829V73.813L191.423,73.813z"/>
<path fill="#FFFFFF" d="M206.978,79.569h-12.589v-3.824h12.589V70.84h-11.491v-3.747h11.491V56.936h4.131v10.156h11.426v3.747
	h-11.426v4.905h12.524v3.824h-12.524v5.213h-4.131V79.569z M196.919,58.25h4.13l2.299,6.526h-4.13L196.919,58.25z M217.038,57.979
	h4.131l-2.299,6.526h-4.131L217.038,57.979z"/>
<path fill="#FFFFFF" d="M251.615,73.891h4.328v3.669h-4.328v3.013c0,0.593-0.097,1.139-0.284,1.641
	c-0.189,0.502-0.45,0.946-0.783,1.332c-0.333,0.388-0.722,0.688-1.166,0.908c-0.444,0.219-0.921,0.328-1.432,0.328h-7.162
	l1.231-3.668h3.932c0.29,0,0.532-0.116,0.732-0.348c0.199-0.231,0.3-0.516,0.3-0.851V77.56h-20.318v-3.669h20.318v-1.971h-15.521
	c-0.511,0-0.988-0.108-1.434-0.328c-0.443-0.218-0.833-0.521-1.166-0.907c-0.332-0.387-0.594-0.836-0.781-1.353
	c-0.189-0.514-0.283-1.067-0.283-1.66v-1.429v-3.515v-2.278v-3.09v-0.425h26.979v1.313v3.746c0,0.592-0.095,1.146-0.282,1.661
	c-0.188,0.514-0.449,0.965-0.782,1.351c-0.333,0.387-0.724,0.689-1.166,0.908c-0.444,0.218-0.922,0.328-1.433,0.328h-18.688v0.965
	c0,0.335,0.1,0.619,0.3,0.851s0.455,0.348,0.768,0.348h21.283l-1.466,3.514h-1.697L251.615,73.891L251.615,73.891z M235.458,78.603
	l2.696,4.904h-4.828l-2.698-4.904H235.458z M232.427,62.729h16.688c0.287,0,0.531-0.115,0.731-0.349c0.2-0.23,0.3-0.514,0.3-0.849
	v-1.081h-17.721L232.427,62.729L232.427,62.729z"/>
<path fill="#FFFFFF" d="M261.772,67.363h-2.831l3.73-10.466h4.463l-2.331,6.488h1.232v21.396h-4.265L261.772,67.363L261.772,67.363z
	 M280.259,59.485h7.961v3.824h-7.961v13.825h2.331v3.824h-2.331v3.862h-4.53v-3.862h-2.332v-3.824h2.332V63.309h-7.961v-3.824h7.961
	v-2.549h4.53V59.485z M271.932,84.821h-4.164l1.632-19.659h4.131L271.932,84.821z M288.32,84.821h-4.13l-1.633-19.659h4.164
	L288.32,84.821z"/>
<g>
	<g>
		<path fill="#FFFFFF" d="M27.403,30.551c0.837-0.254,1.682-0.391,2.516-0.419c2.503-0.086,4.915,0.798,6.765,2.395L76.6,0H5.724
			L4.947,11.374l1.32,1.417l18.037,19.357C25.211,31.456,26.246,30.903,27.403,30.551z"/>
		<path fill="#FFFFFF" d="M27.403,30.551c0.837-0.254,1.682-0.391,2.516-0.419C29.084,30.16,28.24,30.296,27.403,30.551z"/>
		<path fill="#FFFFFF" d="M27.403,30.551c-1.156,0.353-2.191,0.905-3.099,1.598L6.267,12.791l18.037,19.358
			C25.211,31.457,26.246,30.903,27.403,30.551z"/>
	</g>
	<g>
		<defs>
			<path id="SVGID_1_" d="M5.724,0L4.947,11.374l19.357,20.775c0.907-0.692,1.942-1.246,3.099-1.599
				c3.349-1.017,6.814-0.153,9.28,1.976L76.6,0H5.724z"/>
		</defs>
		<clipPath id="SVGID_2_">
			<use xlink:href="#SVGID_1_"  overflow="visible"/>
		</clipPath>
		<polygon clip-path="url(#SVGID_2_)" fill="#FFFFFF" points="76.6,32.525 76.6,5.159 43.015,32.525 		"/>
		<polygon clip-path="url(#SVGID_2_)" fill="#FFFFFF" points="4.947,32.525 19.188,32.525 4.947,17.242 		"/>
		<path clip-path="url(#SVGID_2_)" fill="#FFFFFF" d="M27.403,30.551c3.347-1.017,6.813-0.153,9.279,1.975h0.002L76.6,0H4.947
			v11.374l19.357,20.774C25.211,31.456,26.246,30.903,27.403,30.551z"/>
		<path clip-path="url(#SVGID_2_)" fill="#FFFFFF" d="M27.403,30.551c-1.156,0.353-2.191,0.905-3.099,1.598L4.947,11.374v5.868
			l14.241,15.283h17.494C34.215,30.397,30.75,29.534,27.403,30.551z"/>
		<polygon clip-path="url(#SVGID_2_)" fill="#FFFFFF" points="43.015,32.525 76.6,5.159 76.6,0 36.684,32.525 		"/>
	</g>
</g>
<g>
	<g>
		<path fill="#FFFFFF" d="M95.168,89.444L100.892,0h-17.96L39.113,35.706c0.214,0.446,0.405,0.905,0.554,1.392
			c0.842,2.77,0.392,5.618-0.991,7.919l50.258,44.053L95.168,89.444z"/>
	</g>
	<g>
		<defs>
			<path id="SVGID_3_" d="M82.932,0L39.113,35.706c0.214,0.446,0.405,0.905,0.554,1.392c0.842,2.77,0.392,5.618-0.991,7.919
				l50.258,44.053l6.235,0.375L100.892,0H82.932z"/>
		</defs>
		<clipPath id="SVGID_4_">
			<use xlink:href="#SVGID_3_"  overflow="visible"/>
		</clipPath>
		<polygon clip-path="url(#SVGID_4_)" fill="#FFFFFF" points="38.675,0 38.675,30.903 76.6,0 		"/>
		<path clip-path="url(#SVGID_4_)" fill="#FFFFFF" d="M82.932,0l-43.82,35.706c0.214,0.445,0.406,0.905,0.555,1.392
			c0.842,2.77,0.392,5.618-0.991,7.919L88.934,89.07l-6.516-0.394L38.675,50.334v39.109h62.217V0H82.932z"/>
		<polygon clip-path="url(#SVGID_4_)" fill="#FFFFFF" points="88.934,89.07 38.675,45.016 38.675,50.334 82.418,88.677 		"/>
		<path clip-path="url(#SVGID_4_)" fill="#FFFFFF" d="M39.666,37.097c-0.148-0.486-0.341-0.946-0.555-1.392L82.932,0H76.6
			L38.675,30.903v14.114C40.058,42.716,40.508,39.867,39.666,37.097z"/>
	</g>
</g>
<g>
	<g>
		<path fill="#FFFFFF" d="M20.857,42.815c-0.577-1.896-0.54-3.827-0.022-5.596c0.206-0.706,0.481-1.388,0.837-2.029L4.573,16.842
			L1.165,66.688L22.234,45.62C21.644,44.785,21.17,43.847,20.857,42.815z"/>
		<polygon fill="#FFFFFF" points="4.573,16.841 4.573,16.842 21.671,35.19 		"/>
		<path fill="#FFFFFF" d="M20.857,42.815c0.313,1.032,0.787,1.97,1.377,2.805C21.644,44.785,21.17,43.846,20.857,42.815
			c-0.576-1.897-0.54-3.827-0.022-5.596C20.317,38.989,20.28,40.919,20.857,42.815z"/>
	</g>
	<g>
		<defs>
			<path id="SVGID_5_" d="M1.165,66.688L22.234,45.62c-0.59-0.835-1.063-1.773-1.377-2.806c-0.806-2.652-0.432-5.378,0.814-7.624
				L4.573,16.841L1.165,66.688z"/>
		</defs>
		<clipPath id="SVGID_6_">
			<use xlink:href="#SVGID_5_"  overflow="visible"/>
		</clipPath>
		<polygon clip-path="url(#SVGID_6_)" fill="#FFFFFF" points="22.234,16.841 10.04,16.841 22.234,29.927 		"/>
		<path clip-path="url(#SVGID_6_)" fill="#FFFFFF" d="M20.857,42.815c-0.807-2.652-0.432-5.378,0.814-7.625L4.573,16.841H1.165
			v49.848L22.234,45.62C21.644,44.785,21.17,43.847,20.857,42.815z"/>
		<polygon clip-path="url(#SVGID_6_)" fill="#FFFFFF" points="22.234,66.689 22.234,51.279 6.822,66.689 		"/>
		<path clip-path="url(#SVGID_6_)" fill="#FFFFFF" d="M20.857,42.815c0.313,1.032,0.787,1.97,1.377,2.805V29.927L10.04,16.841H4.573
			l17.099,18.35C20.425,37.437,20.05,40.163,20.857,42.815z"/>
		<polygon clip-path="url(#SVGID_6_)" fill="#FFFFFF" points="1.165,66.688 1.165,66.689 6.822,66.689 22.234,51.279 22.234,45.62 
					"/>
	</g>
</g>
<g>
	<g>
		<path fill="#FFFFFF" d="M32.335,49.554c-2.532,0.548-5.081,0.063-7.171-1.206L0.75,72.76L0,83.719l82.417,4.957l-46.454-40.72
			c-0.845,0.602-1.795,1.085-2.842,1.404C32.86,49.44,32.597,49.497,32.335,49.554z"/>
		<path fill="#FFFFFF" d="M32.335,49.554c0.262-0.058,0.525-0.114,0.787-0.193c1.047-0.319,1.997-0.803,2.842-1.404
			c-0.846,0.602-1.796,1.085-2.843,1.404C32.859,49.44,32.597,49.497,32.335,49.554z"/>
		<polygon fill="#FFFFFF" points="25.163,48.348 0.75,72.76 25.164,48.348 		"/>
	</g>
	<g>
		<defs>
			<path id="SVGID_7_" d="M33.12,49.361c-2.784,0.847-5.65,0.387-7.957-1.013L0.75,72.76L0,83.719l82.417,4.957l-46.454-40.72
				C35.117,48.558,34.167,49.042,33.12,49.361"/>
		</defs>
		<clipPath id="SVGID_8_">
			<use xlink:href="#SVGID_7_"  overflow="visible"/>
		</clipPath>
		<path clip-path="url(#SVGID_8_)" fill="#FFFFFF" d="M33.121,49.361c-2.785,0.846-5.65,0.387-7.957-1.013L0.75,72.76l0.414-6.071
			l18.732-18.732H0v40.72h82.417v-0.001L35.963,47.957C35.118,48.558,34.168,49.042,33.121,49.361z"/>
		<polygon clip-path="url(#SVGID_8_)" fill="#FFFFFF" points="82.417,47.957 42.03,47.957 82.417,83.358 		"/>
		<polygon clip-path="url(#SVGID_8_)" fill="#FFFFFF" points="42.03,47.957 35.963,47.957 82.417,88.676 82.417,83.358 		"/>
		<path clip-path="url(#SVGID_8_)" fill="#FFFFFF" d="M0.75,72.76l24.414-24.412c2.307,1.399,5.172,1.858,7.957,1.013
			c1.047-0.319,1.997-0.803,2.842-1.404H19.897L1.164,66.689L0.75,72.76z"/>
	</g>
</g>
<path fill="none" d="M27.403,30.551c3.348-1.017,6.813-0.153,9.28,1.976L76.6,0H5.724L4.947,11.374l19.357,20.774
	C25.211,31.456,26.246,30.903,27.403,30.551z"/>
<path fill="none" d="M33.121,49.361c-2.785,0.846-5.65,0.387-7.957-1.013L0.75,72.76l0.316-4.634L0,83.719l82.418,4.957
	l-46.455-40.72C35.118,48.558,34.168,49.042,33.121,49.361z"/>
<path fill="none" d="M20.857,42.815c-0.807-2.652-0.432-5.378,0.814-7.625L4.573,16.841L1.164,66.689L22.234,45.62
	C21.644,44.785,21.17,43.847,20.857,42.815z"/>
<path fill="none" d="M100.892,0h-17.96l-43.82,35.706c0.214,0.445,0.406,0.905,0.555,1.392c0.842,2.77,0.392,5.618-0.991,7.919
	l50.256,44.052l6.237,0.375L100.892,0z"/>
<path fill="none" d="M39.666,37.097c-0.148-0.486-0.341-0.946-0.555-1.392L82.932,0H76.6L36.683,32.526
	c-2.467-2.129-5.933-2.992-9.28-1.976c-1.156,0.353-2.191,0.905-3.099,1.598L4.947,11.374l-0.374,5.467l17.099,18.35
	c-1.246,2.247-1.621,4.973-0.814,7.625c0.313,1.032,0.787,1.97,1.377,2.805L1.164,66.689l-0.098,1.438L0.75,72.76l24.414-24.412
	c2.307,1.399,5.172,1.858,7.957,1.013c1.047-0.319,1.997-0.803,2.842-1.404l46.455,40.72l6.513,0.392L38.675,45.016
	C40.058,42.716,40.508,39.867,39.666,37.097z"/>
</svg>
