<?xml version="1.0" encoding="utf-8"?>
<!-- Generator: Adobe Illustrator 16.0.0, SVG Export Plug-In . SVG Version: 6.00 Build 0)  -->
<!DOCTYPE svg PUBLIC "-//W3C//DTD SVG 1.1//EN" "http://www.w3.org/Graphics/SVG/1.1/DTD/svg11.dtd">
<svg version="1.1" id="图层_1" xmlns="http://www.w3.org/2000/svg" xmlns:xlink="http://www.w3.org/1999/xlink" x="0px" y="0px"
	 width="187.059px" height="181.439px" viewBox="0 0 187.059 181.439" enable-background="new 0 0 187.059 181.439"
	 xml:space="preserve">
<path fill="#3462AD" d="M29.981,170.362v3.312H19.313v7.654h-3.78v-9.687c0.017-2.782,0.268-4.609,0.751-5.481
	c0.607-1.226,1.487-2.097,2.64-2.617c1.152-0.519,2.775-0.779,4.866-0.779h6.192v3.313h-5.71c-1.769,0.037-2.905,0.185-3.405,0.445
	c-1.001,0.427-1.519,1.373-1.554,2.839v1.002H29.981z"/>
<path fill="#3462AD" d="M46.199,162.764v3.312H41.24c-1.287,0-2.225,0.092-2.815,0.278c-0.59,0.185-1.081,0.548-1.474,1.085
	c-0.269,0.372-0.452,0.743-0.549,1.114c-0.099,0.371-0.184,1.001-0.255,1.893h10.052v3.312H36.147
	c0.142,1.596,0.598,2.703,1.366,3.325c0.769,0.621,2.074,0.933,3.915,0.933h4.771v3.312H41.24c-1.341,0-2.52-0.083-3.539-0.251
	c-1.608-0.277-2.886-1.01-3.833-2.197c-1.358-1.707-2.038-4.017-2.038-6.93c0-3.229,0.956-5.744,2.869-7.543
	c0.661-0.613,1.362-1.039,2.104-1.281c0.742-0.24,1.738-0.36,2.99-0.36H46.199z"/>
<path fill="#3462AD" d="M53.008,174.287v7.041h-3.807v-18.563h8.739c2.503,0,4.244,0.334,5.227,1.002
	c0.68,0.444,1.202,1.034,1.569,1.767c0.366,0.733,0.549,1.536,0.549,2.408c0,1.762-0.428,3.126-1.286,4.091
	c-0.537,0.575-1.242,1.011-2.118,1.308c0.697,0.261,1.224,0.533,1.581,0.821c0.358,0.288,0.68,0.709,0.965,1.267
	c0.215,0.444,0.372,0.872,0.47,1.279c0.098,0.409,0.174,1.013,0.228,1.811c0.107,1.335,0.25,2.271,0.428,2.811h-4.262
	c-0.125-0.427-0.259-1.309-0.402-2.645c-0.089-1.075-0.273-1.901-0.549-2.478c-0.278-0.575-0.693-1.029-1.247-1.363
	c-0.697-0.39-1.707-0.574-3.029-0.556H53.008z M53.008,170.974h5.334c0.894,0,1.528-0.141,1.903-0.417
	c0.573-0.408,0.859-1.123,0.859-2.145c0-1.131-0.429-1.854-1.287-2.17c-0.304-0.112-0.795-0.167-1.475-0.167h-5.334V170.974z"/>
<path fill="#3462AD" d="M72.147,174.287v7.041H68.34v-18.563h8.739c2.503,0,4.245,0.334,5.228,1.002
	c0.679,0.444,1.201,1.034,1.568,1.767c0.366,0.733,0.549,1.536,0.549,2.408c0,1.762-0.428,3.126-1.286,4.091
	c-0.536,0.575-1.242,1.011-2.118,1.308c0.697,0.261,1.224,0.533,1.582,0.821c0.357,0.288,0.679,0.709,0.965,1.267
	c0.214,0.444,0.371,0.872,0.469,1.279c0.098,0.409,0.174,1.013,0.228,1.811c0.107,1.335,0.25,2.271,0.429,2.811h-4.263
	c-0.125-0.427-0.259-1.309-0.402-2.645c-0.089-1.075-0.273-1.901-0.549-2.478c-0.277-0.575-0.693-1.029-1.247-1.363
	c-0.697-0.39-1.707-0.574-3.029-0.556H72.147z M72.147,170.974h5.334c0.895,0,1.528-0.141,1.904-0.417
	c0.572-0.408,0.858-1.123,0.858-2.145c0-1.131-0.429-1.854-1.287-2.17c-0.304-0.112-0.795-0.167-1.475-0.167h-5.334V170.974z"/>
<path fill="#3462AD" d="M95.335,162.653c1.787,0,3.36,0.314,4.718,0.946c1.591,0.761,2.707,2.03,3.351,3.813
	c0.5,1.392,0.75,3.024,0.75,4.898c0,1.893-0.304,3.535-0.911,4.927c-0.769,1.651-1.948,2.81-3.538,3.478
	c-1.18,0.483-2.538,0.725-4.075,0.725c-2.02,0-3.771-0.391-5.254-1.169c-1.251-0.649-2.208-1.67-2.868-3.063
	c-0.662-1.391-0.993-3.08-0.993-5.064c0-3.544,0.849-6.067,2.547-7.57C90.491,163.311,92.582,162.67,95.335,162.653 M95.362,165.769
	c-1.752,0-3.002,0.595-3.753,1.78c-0.608,0.93-0.912,2.423-0.912,4.482c0,2.171,0.375,3.766,1.126,4.787
	c0.75,1.002,1.939,1.503,3.566,1.503c1.572,0,2.729-0.51,3.472-1.531c0.74-1.02,1.111-2.597,1.111-4.73
	c0-1.949-0.304-3.434-0.911-4.453C98.364,166.401,97.131,165.789,95.362,165.769"/>
<path fill="#3462AD" d="M106.755,181.328v-3.313h8.177c1.303,0,2.171-0.128,2.6-0.389c0.626-0.389,0.938-0.975,0.938-1.753
	c0-0.909-0.367-1.567-1.1-1.978c-0.411-0.239-1.072-0.36-1.983-0.36h-3.324c-2.02,0-3.476-0.38-4.369-1.142
	c-0.555-0.481-0.987-1.086-1.301-1.809c-0.313-0.725-0.469-1.503-0.469-2.338c0-1.299,0.367-2.486,1.099-3.563
	c0.715-1.039,1.859-1.65,3.432-1.836c0.536-0.056,1.331-0.083,2.386-0.083h8.873v3.312h-8.015c-1.198,0.019-1.993,0.073-2.386,0.167
	c-0.805,0.204-1.207,0.835-1.207,1.893c0,0.89,0.34,1.484,1.019,1.781c0.447,0.223,1.197,0.334,2.252,0.334h2.869
	c1.465,0,2.555,0.13,3.27,0.389c1.27,0.446,2.145,1.226,2.627,2.338c0.375,0.892,0.563,1.848,0.563,2.868
	c0,1.131-0.251,2.143-0.751,3.033c-0.696,1.262-1.742,2.021-3.136,2.282c-0.68,0.11-1.707,0.167-3.084,0.167H106.755z"/>
<path fill="#3462AD" d="M138.869,162.764v3.312h-4.96c-1.286,0-2.225,0.092-2.814,0.278c-0.59,0.185-1.081,0.548-1.475,1.085
	c-0.268,0.372-0.451,0.743-0.549,1.114c-0.099,0.371-0.184,1.001-0.255,1.893h10.053v3.312h-10.053
	c0.143,1.596,0.599,2.703,1.367,3.325c0.768,0.621,2.073,0.933,3.914,0.933h4.771v3.312h-4.96c-1.341,0-2.519-0.083-3.538-0.251
	c-1.608-0.277-2.887-1.01-3.834-2.197c-1.357-1.707-2.037-4.017-2.037-6.93c0-3.229,0.956-5.744,2.868-7.543
	c0.661-0.613,1.363-1.039,2.104-1.281c0.742-0.24,1.738-0.36,2.989-0.36H138.869z"/>
<polygon fill="#3462AD" points="147.34,162.764 151.79,177.264 156.481,162.764 162.03,162.764 162.03,181.327 158.411,181.327 
	158.411,167.411 153.747,181.327 149.833,181.327 145.41,167.411 145.41,181.327 141.791,181.327 141.791,162.764 "/>
<rect x="165.701" y="162.763" fill="#3462AD" width="3.808" height="18.563"/>
<path fill="#3462AD" d="M5.462,151.382H0v-3.555v-2.916v-3.51v-2.916v-0.54v-2.969h11.082h4.552h0.91v11.407
	c0,0.696-0.112,1.347-0.334,1.953c-0.222,0.605-0.53,1.137-0.923,1.591s-0.852,0.81-1.376,1.068
	c-0.524,0.257-1.087,0.386-1.69,0.386H5.462z M6.484,118.528H27.98h3.773h1.69v9.859c0,0.696-0.119,1.347-0.353,1.952
	c-0.236,0.605-0.55,1.136-0.942,1.59c-0.393,0.454-0.851,0.811-1.374,1.068s-1.073,0.386-1.648,0.386H6.523H2.486H1.061v-14.855
	h1.415H6.484z M5.462,141.402h5.62v-2.916h-5.62V141.402z M5.462,147.874h4.371c0.338,0,0.631-0.14,0.878-0.417
	c0.247-0.277,0.371-0.616,0.371-1.019v-1.526h-5.62V147.874z M6.523,124.179H27.98v-2.142H6.523V124.179z M26.764,129.875
	c0.34,0,0.627-0.141,0.863-0.418c0.235-0.279,0.353-0.621,0.353-1.024v-0.745H6.523v2.188H26.764z M34.504,146.384
	c0,0.696-0.112,1.347-0.334,1.953c-0.223,0.605-0.531,1.137-0.924,1.591c-0.393,0.454-0.852,0.81-1.376,1.068
	c-0.524,0.257-1.087,0.386-1.689,0.386h-1.14h-5.619h-5.463v-3.545v-2.908v-3.498v-2.91v-0.544v-3h11.082H33.6h0.904V146.384z
	 M23.422,141.402h5.62v-2.916h-5.62V141.402z M27.823,147.874c0.34,0,0.628-0.14,0.864-0.417c0.236-0.277,0.354-0.616,0.354-1.019
	v-1.526h-5.619v2.962H27.823z"/>
<path fill="#3462AD" d="M43.582,120.625h7.781v3.691h-5.462h-2.319h-5.62l2.319-5.561h4.008L43.582,120.625z M40.831,134.75v-4.556
	h-2.869v-3.828h13.165v3.828H45.94v4.556h5.187v3.828H45.94v7.792c0,0.396,0.124,0.729,0.373,1.003
	c0.249,0.273,0.544,0.41,0.885,0.41h3.968l-2.161,3.508h-4.48c-0.524,0-1.009-0.113-1.454-0.342
	c-0.446-0.228-0.832-0.531-1.159-0.911c-0.328-0.379-0.59-0.828-0.786-1.344c-0.197-0.517-0.295-1.078-0.295-1.688v-8.429h-2.869
	v-3.828H40.831z M72.741,138.396h-8.528l-1.061,2.323h5.188l4.283,10.8h-5.737l-3.891-10.391l-4.755,10.391h-6.013l6.131-13.123
	h-6.052v-4.513h8.213v-6.469h-8.056l1.415-8.02h4.794l-0.589,3.508h2.436v-4.557h5.345v4.557h6.13v4.512h-6.13v6.469h6.877V138.396z
	"/>
<path fill="#3462AD" d="M91.093,145.185H76.238v-4.511h14.855v-5.787H77.535v-4.42h13.558v-11.984h4.873v11.984h13.479v4.42H95.966
	v5.787h14.776v4.511H95.966v6.151h-4.873V145.185z M79.225,120.032h4.873l2.712,7.701h-4.873L79.225,120.032z M102.961,119.713
	h4.873l-2.711,7.701h-4.873L102.961,119.713z"/>
<path fill="#3462AD" d="M143.753,138.487h5.108v4.329h-5.108v3.554c0,0.699-0.112,1.344-0.335,1.936
	c-0.223,0.594-0.53,1.117-0.923,1.573c-0.394,0.455-0.852,0.813-1.376,1.07c-0.524,0.259-1.087,0.388-1.69,0.388h-8.448l1.454-4.33
	h4.638c0.34,0,0.628-0.136,0.864-0.41c0.235-0.272,0.354-0.606,0.354-1.002v-2.778h-23.972v-4.329h23.972v-2.324h-18.313
	c-0.604,0-1.166-0.129-1.69-0.387s-0.983-0.615-1.375-1.071c-0.394-0.455-0.701-0.987-0.924-1.595s-0.334-1.26-0.334-1.959v-1.688
	v-4.146v-2.688v-3.645v-0.502h31.831v1.55v4.42c0,0.699-0.111,1.351-0.334,1.959s-0.53,1.139-0.923,1.594
	c-0.394,0.457-0.852,0.814-1.376,1.072s-1.087,0.386-1.689,0.386h-22.046v1.141c0,0.395,0.117,0.729,0.354,1.002
	c0.235,0.273,0.536,0.41,0.903,0.41h25.111l-1.729,4.146h-2.004V138.487z M124.693,144.045l3.183,5.787h-5.698l-3.183-5.787H124.693
	z M121.117,125.318h19.687c0.342,0,0.63-0.138,0.866-0.41c0.235-0.274,0.354-0.608,0.354-1.002v-1.276h-20.906V125.318z"/>
<path fill="#3462AD" d="M155.738,130.785h-3.34l4.401-12.347h5.266l-2.751,7.654h1.454v25.244h-5.03V130.785z M177.549,121.49h9.393
	v4.512h-9.393v16.313h2.751v4.511h-2.751v4.558h-5.345v-4.558h-2.751v-4.511h2.751v-16.313h-9.392v-4.512h9.392v-3.007h5.345V121.49
	z M167.725,151.382h-4.912l1.925-23.193h4.873L167.725,151.382z M187.059,151.382h-4.873l-1.925-23.193h4.912L187.059,151.382z"/>
<g>
	<defs>
		<path id="SVGID_1_" d="M50.613,0l-0.777,11.373l19.358,20.775c0.906-0.692,1.942-1.246,3.097-1.598
			c3.349-1.017,6.814-0.153,9.282,1.975L121.489,0H50.613z"/>
	</defs>
	<clipPath id="SVGID_2_">
		<use xlink:href="#SVGID_1_"  overflow="visible"/>
	</clipPath>
	
		<linearGradient id="SVGID_3_" gradientUnits="userSpaceOnUse" x1="-313.1113" y1="399.3276" x2="-312.1113" y2="399.3276" gradientTransform="matrix(100.8917 0 0 -100.8917 31594.6816 40305.0859)">
		<stop  offset="0" style="stop-color:#187FC4"/>
		<stop  offset="0.3086" style="stop-color:#1876BE"/>
		<stop  offset="0.8091" style="stop-color:#185EAC"/>
		<stop  offset="1" style="stop-color:#1853A4"/>
	</linearGradient>
	<rect x="49.835" y="0" clip-path="url(#SVGID_2_)" fill="url(#SVGID_3_)" width="71.654" height="32.525"/>
</g>
<g>
	<defs>
		<path id="SVGID_4_" d="M127.82,0L84.001,35.706c0.214,0.446,0.405,0.905,0.554,1.391c0.841,2.771,0.391,5.62-0.991,7.919
			l50.257,44.053l6.236,0.375L145.781,0H127.82z"/>
	</defs>
	<clipPath id="SVGID_5_">
		<use xlink:href="#SVGID_4_"  overflow="visible"/>
	</clipPath>
	
		<linearGradient id="SVGID_6_" gradientUnits="userSpaceOnUse" x1="-313.1113" y1="399.3276" x2="-312.1113" y2="399.3276" gradientTransform="matrix(100.8917 0 0 -100.8917 31594.6816 40333.5859)">
		<stop  offset="0" style="stop-color:#187FC4"/>
		<stop  offset="0.3086" style="stop-color:#1876BE"/>
		<stop  offset="0.8091" style="stop-color:#185EAC"/>
		<stop  offset="1" style="stop-color:#1853A4"/>
	</linearGradient>
	<rect x="83.564" y="0" clip-path="url(#SVGID_5_)" fill="url(#SVGID_6_)" width="62.217" height="89.443"/>
</g>
<g>
	<defs>
		<path id="SVGID_7_" d="M49.016,23.36l-2.962,43.329l21.069-21.068c-0.59-0.836-1.063-1.774-1.377-2.806
			c-0.806-2.651-0.431-5.378,0.815-7.624l-17.099-18.35L49.016,23.36z"/>
	</defs>
	<clipPath id="SVGID_8_">
		<use xlink:href="#SVGID_7_"  overflow="visible"/>
	</clipPath>
	
		<linearGradient id="SVGID_9_" gradientUnits="userSpaceOnUse" x1="-313.1113" y1="399.3267" x2="-312.1113" y2="399.3267" gradientTransform="matrix(100.8917 0 0 -100.8917 31594.6816 40330.5859)">
		<stop  offset="0" style="stop-color:#187FC4"/>
		<stop  offset="0.3086" style="stop-color:#1876BE"/>
		<stop  offset="0.8091" style="stop-color:#185EAC"/>
		<stop  offset="1" style="stop-color:#1853A4"/>
	</linearGradient>
	<rect x="46.054" y="16.841" clip-path="url(#SVGID_8_)" fill="url(#SVGID_9_)" width="21.069" height="49.848"/>
</g>
<g>
	<defs>
		<path id="SVGID_10_" d="M78.009,49.361c-2.784,0.846-5.649,0.387-7.956-1.013L45.639,72.761l-0.749,10.96l82.416,4.956
			l-46.455-40.72C80.006,48.559,79.057,49.042,78.009,49.361"/>
	</defs>
	<clipPath id="SVGID_11_">
		<use xlink:href="#SVGID_10_"  overflow="visible"/>
	</clipPath>
	
		<linearGradient id="SVGID_12_" gradientUnits="userSpaceOnUse" x1="-313.1113" y1="399.3276" x2="-312.1113" y2="399.3276" gradientTransform="matrix(100.8917 0 0 -100.8917 31594.6816 40357.1484)">
		<stop  offset="0" style="stop-color:#187FC4"/>
		<stop  offset="0.3086" style="stop-color:#1876BE"/>
		<stop  offset="0.8091" style="stop-color:#185EAC"/>
		<stop  offset="1" style="stop-color:#1853A4"/>
	</linearGradient>
	<rect x="44.89" y="47.957" clip-path="url(#SVGID_11_)" fill="url(#SVGID_12_)" width="82.416" height="40.72"/>
</g>
<polygon fill="none" points="50.613,0 44.89,83.721 140.058,89.444 145.781,0 "/>
</svg>
