<?xml version="1.0" encoding="utf-8"?>
<!-- Generator: Adobe Illustrator 16.0.0, SVG Export Plug-In . SVG Version: 6.00 Build 0)  -->
<!DOCTYPE svg PUBLIC "-//W3C//DTD SVG 1.1//EN" "http://www.w3.org/Graphics/SVG/1.1/DTD/svg11.dtd">
<svg version="1.1" id="图层_1" xmlns="http://www.w3.org/2000/svg" xmlns:xlink="http://www.w3.org/1999/xlink" x="0px" y="0px"
	 width="200px" height="140px" viewBox="0 0 200 140" enable-background="new 0 0 200 140" xml:space="preserve">
<linearGradient id="SVGID_1_" gradientUnits="userSpaceOnUse" x1="5" y1="118.1523" x2="195" y2="118.1523">
	<stop  offset="0" style="stop-color:#207EB5"/>
	<stop  offset="1" style="stop-color:#1D549F"/>
</linearGradient>
<path fill="url(#SVGID_1_)" d="M42.841,106.699v4.086h-6.12c-1.587,0-2.746,0.114-3.473,0.343c-0.728,0.229-1.335,0.676-1.82,1.34
	c-0.33,0.458-0.556,0.917-0.678,1.374c-0.121,0.459-0.225,1.236-0.313,2.334h12.404v4.088H30.437
	c0.175,1.97,0.738,3.338,1.687,4.104c0.949,0.768,2.557,1.152,4.828,1.152h5.889v4.086h-6.12c-1.655,0-3.109-0.104-4.367-0.309
	c-1.984-0.345-3.56-1.249-4.729-2.714c-1.675-2.106-2.514-4.958-2.514-8.552c0-3.983,1.178-7.085,3.54-9.306
	c0.815-0.758,1.681-1.283,2.596-1.58c0.916-0.298,2.145-0.446,3.69-0.446H42.841z M55.015,120.918
	c1.632-0.024,2.878,0.204,3.739,0.686c0.683,0.41,1.195,0.973,1.537,1.684c0.34,0.71,0.567,1.729,0.678,3.056
	c0.177,1.648,0.341,2.735,0.497,3.263h5.26c-0.222-0.665-0.398-1.821-0.531-3.469c-0.065-0.984-0.16-1.729-0.28-2.231
	c-0.122-0.505-0.314-1.031-0.58-1.581c-0.352-0.685-0.749-1.207-1.19-1.563s-1.092-0.692-1.952-1.013
	c1.082-0.366,1.952-0.905,2.613-1.614c1.059-1.189,1.588-2.874,1.588-5.049c0-1.075-0.225-2.065-0.678-2.969
	c-0.451-0.906-1.096-1.633-1.935-2.183c-1.213-0.823-3.362-1.235-6.451-1.235H46.547v22.906h4.697v-8.688H55.015z M51.244,110.786
	h6.582c0.838,0,1.445,0.067,1.821,0.205c1.058,0.39,1.587,1.281,1.587,2.678c0,1.26-0.353,2.142-1.058,2.646
	c-0.464,0.342-1.247,0.514-2.35,0.514h-6.582V110.786z M78.631,120.918c1.633-0.024,2.879,0.204,3.739,0.686
	c0.684,0.41,1.195,0.973,1.538,1.684c0.342,0.71,0.569,1.729,0.678,3.056c0.179,1.648,0.342,2.735,0.497,3.263h5.261
	c-0.222-0.665-0.398-1.821-0.532-3.469c-0.063-0.984-0.159-1.729-0.281-2.231c-0.121-0.505-0.313-1.031-0.579-1.581
	c-0.351-0.685-0.749-1.207-1.19-1.563c-0.441-0.355-1.092-0.692-1.951-1.013c1.081-0.366,1.951-0.905,2.612-1.614
	c1.059-1.189,1.587-2.874,1.587-5.049c0-1.075-0.225-2.065-0.678-2.969c-0.451-0.906-1.097-1.633-1.936-2.183
	c-1.213-0.823-3.362-1.235-6.449-1.235H70.164v22.906h4.696v-8.688H78.631z M74.86,110.786h6.582c0.839,0,1.445,0.067,1.822,0.205
	c1.057,0.39,1.586,1.281,1.586,2.678c0,1.26-0.354,2.142-1.059,2.646c-0.464,0.342-1.247,0.514-2.35,0.514H74.86V110.786z
	 M103.475,106.562c-3.397,0.021-5.978,0.812-7.742,2.369c-2.094,1.855-3.143,4.968-3.143,9.341c0,2.452,0.408,4.534,1.225,6.251
	c0.814,1.717,1.996,2.977,3.538,3.778c1.832,0.962,3.993,1.442,6.483,1.442c1.897,0,3.573-0.297,5.028-0.895
	c1.963-0.824,3.42-2.253,4.367-4.292c0.751-1.717,1.124-3.743,1.124-6.08c0-2.31-0.308-4.326-0.926-6.042
	c-0.793-2.199-2.173-3.768-4.134-4.707C107.619,106.951,105.678,106.562,103.475,106.562 M103.507,110.406
	c2.183,0.023,3.705,0.778,4.565,2.269c0.748,1.26,1.124,3.089,1.124,5.493c0,2.634-0.459,4.58-1.373,5.84
	c-0.915,1.26-2.344,1.889-4.284,1.889c-2.006,0-3.474-0.618-4.399-1.854c-0.927-1.259-1.388-3.229-1.388-5.907
	c0-2.542,0.373-4.384,1.125-5.529C99.802,111.14,101.346,110.406,103.507,110.406 M128.646,129.605c1.697,0,2.965-0.068,3.805-0.206
	c1.719-0.321,3.011-1.259,3.869-2.816c0.616-1.1,0.928-2.346,0.928-3.743c0-1.26-0.232-2.439-0.696-3.537
	c-0.594-1.373-1.676-2.337-3.241-2.885c-0.884-0.322-2.229-0.48-4.037-0.48h-3.538c-1.302,0-2.228-0.14-2.778-0.413
	c-0.84-0.365-1.256-1.1-1.256-2.197c0-1.307,0.495-2.084,1.486-2.336c0.484-0.113,1.469-0.184,2.944-0.205h9.891v-4.087h-10.949
	c-1.301,0-2.282,0.033-2.942,0.101c-1.941,0.229-3.354,0.986-4.235,2.268c-0.903,1.329-1.356,2.795-1.356,4.397
	c0,1.029,0.192,1.991,0.579,2.884c0.386,0.894,0.921,1.638,1.604,2.231c1.104,0.94,2.9,1.41,5.394,1.41h4.1
	c1.126,0,1.941,0.148,2.449,0.445c0.904,0.503,1.356,1.317,1.356,2.438c0,0.962-0.386,1.683-1.157,2.163
	c-0.529,0.321-1.599,0.482-3.209,0.482h-10.09v4.086H128.646z M9.666,116.074v-1.237c0.042-1.809,0.683-2.976,1.917-3.503
	c0.617-0.319,2.017-0.502,4.2-0.548h7.047v-4.089h-7.642c-2.58,0-4.583,0.322-6.003,0.962c-1.422,0.642-2.509,1.718-3.258,3.229
	C5.33,111.964,5.021,114.22,5,117.653v11.952h4.666v-9.444H22.83v-4.087H9.666z M149.286,106.699c-1.544,0-2.772,0.148-3.688,0.446
	c-0.917,0.297-1.781,0.822-2.596,1.58c-2.361,2.221-3.543,5.322-3.543,9.306c0,3.594,0.84,6.445,2.516,8.552
	c1.17,1.465,2.746,2.369,4.73,2.714c1.257,0.205,2.712,0.309,4.367,0.309h6.118v-4.086h-5.888c-2.271,0-3.881-0.385-4.83-1.152
	c-0.947-0.766-1.511-2.134-1.686-4.104h12.403v-4.088h-12.403c0.088-1.098,0.192-1.875,0.313-2.334
	c0.123-0.457,0.35-0.916,0.679-1.374c0.485-0.664,1.092-1.11,1.82-1.34c0.728-0.229,1.885-0.343,3.474-0.343h6.118v-4.086H149.286z
	 M160.798,106.699v22.906h4.466v-17.172l5.46,17.172h4.826l5.757-17.172v17.172h4.466v-22.906h-6.847l-5.789,17.892l-5.491-17.892
	H160.798z M190.304,129.605H195v-22.906h-4.696V129.605z"/>
<g>
	<defs>
		<path id="SVGID_2_" d="M61.174,9.573l-0.643,9.411l16.017,17.191c0.75-0.572,1.607-1.03,2.565-1.321
			c2.769-0.842,5.638-0.127,7.679,1.634l33.03-26.915H61.174z"/>
	</defs>
	<clipPath id="SVGID_3_">
		<use xlink:href="#SVGID_2_"  overflow="visible"/>
	</clipPath>
	
		<linearGradient id="SVGID_4_" gradientUnits="userSpaceOnUse" x1="-11.269" y1="174.085" x2="-10.106" y2="174.085" gradientTransform="matrix(71.7774 0 0 -71.7774 831.7405 12518.3818)">
		<stop  offset="0" style="stop-color:#187FC4"/>
		<stop  offset="0.3086" style="stop-color:#1876BE"/>
		<stop  offset="0.8091" style="stop-color:#185EAC"/>
		<stop  offset="1" style="stop-color:#1853A4"/>
	</linearGradient>
	<rect x="60.532" y="9.573" clip-path="url(#SVGID_3_)" fill="url(#SVGID_4_)" width="59.292" height="26.915"/>
</g>
<g>
	<defs>
		<path id="SVGID_5_" d="M125.062,9.573L88.804,39.12c0.176,0.368,0.335,0.748,0.458,1.15c0.696,2.292,0.323,4.649-0.82,6.553
			l41.586,36.453l5.16,0.31l4.735-74.013H125.062z"/>
	</defs>
	<clipPath id="SVGID_6_">
		<use xlink:href="#SVGID_5_"  overflow="visible"/>
	</clipPath>
	
		<linearGradient id="SVGID_7_" gradientUnits="userSpaceOnUse" x1="-11.2686" y1="174.0371" x2="-10.1054" y2="174.0371" gradientTransform="matrix(71.7774 0 0 -71.7774 831.7405 12538.5068)">
		<stop  offset="0" style="stop-color:#187FC4"/>
		<stop  offset="0.3086" style="stop-color:#1876BE"/>
		<stop  offset="0.8091" style="stop-color:#185EAC"/>
		<stop  offset="1" style="stop-color:#1853A4"/>
	</linearGradient>
	<rect x="88.441" y="9.573" clip-path="url(#SVGID_6_)" fill="url(#SVGID_7_)" width="51.482" height="74.013"/>
</g>
<g>
	<defs>
		<path id="SVGID_8_" d="M60.146,24.603l-2.745,40.153l17.434-17.434c-0.487-0.691-0.879-1.467-1.14-2.32
			c-0.667-2.196-0.357-4.451,0.675-6.311L60.222,23.509L60.146,24.603z"/>
	</defs>
	<clipPath id="SVGID_9_">
		<use xlink:href="#SVGID_8_"  overflow="visible"/>
	</clipPath>
	
		<linearGradient id="SVGID_10_" gradientUnits="userSpaceOnUse" x1="-11.2695" y1="174.043" x2="-10.106" y2="174.043" gradientTransform="matrix(71.7774 0 0 -71.7774 831.7405 12536.4443)">
		<stop  offset="0" style="stop-color:#187FC4"/>
		<stop  offset="0.3086" style="stop-color:#1876BE"/>
		<stop  offset="0.8091" style="stop-color:#185EAC"/>
		<stop  offset="1" style="stop-color:#1853A4"/>
	</linearGradient>
	<rect x="57.402" y="23.509" clip-path="url(#SVGID_9_)" fill="url(#SVGID_10_)" width="17.434" height="41.247"/>
</g>
<g>
	<defs>
		<path id="SVGID_11_" d="M83.844,50.417c-2.304,0.7-4.676,0.321-6.583-0.838L57.059,69.781l-0.62,9.068l68.196,4.102l-38.44-33.696
			C85.497,49.754,84.711,50.154,83.844,50.417"/>
	</defs>
	<clipPath id="SVGID_12_">
		<use xlink:href="#SVGID_11_"  overflow="visible"/>
	</clipPath>
	
		<linearGradient id="SVGID_13_" gradientUnits="userSpaceOnUse" x1="-11.2686" y1="174" x2="-10.1054" y2="174" gradientTransform="matrix(71.7774 0 0 -71.7774 831.7405 12555.3193)">
		<stop  offset="0" style="stop-color:#187FC4"/>
		<stop  offset="0.3086" style="stop-color:#1876BE"/>
		<stop  offset="0.8091" style="stop-color:#185EAC"/>
		<stop  offset="1" style="stop-color:#1853A4"/>
	</linearGradient>
	<rect x="56.438" y="49.255" clip-path="url(#SVGID_12_)" fill="url(#SVGID_13_)" width="68.196" height="33.696"/>
</g>
</svg>
